<?xml version="1.0" encoding="utf-8"?>
<!-- Generator: Adobe Illustrator 22.1.0, SVG Export Plug-In . SVG Version: 6.00 Build 0)  -->
<svg version="1.1" id="Layer_1" xmlns="http://www.w3.org/2000/svg" xmlns:xlink="http://www.w3.org/1999/xlink" x="0px" y="0px"
	 viewBox="0 0 300 124" style="enable-background:new 0 0 300 124;" xml:space="preserve">
<style type="text/css">
	.st0{fill:#FFFFFF;}
</style>
<g>
	<path class="st0" d="M90.9,5.3v2.3H62.8c-5.4,0.1-8.7,3-10.1,8.6s2.3,12.5,11,20.6c6.5,6.4,4.8,9.7-4.9,10H47.4v-2.3h11.4
		c7.3,0.2,8.2-1.8,2.8-6.1c-9-8.2-12.8-15.8-11.4-22.7c1.3-6.9,5.6-10.3,12.7-10.3h28V5.3z M49.4,49h9.5C71,48.2,73.3,43.6,66,35.3
		c-8.2-8.2-11.8-14.5-10.7-18.9c1-4.4,3.6-6.5,7.6-6.5H91v7.3H79.6c-10.8-0.3-14.1,3-10,10C79,35,83.9,41.5,84.4,46.6
		s-2.1,8.3-7.6,9.7H49.4V49z M90.9,21.9H79.6c-6.6-0.2-7.6,1.6-2.9,5.5C85,34.7,89.1,41.8,89,48.7c-0.2,6.9-4.2,11-12.3,12.3H47.4
		v-2.3h29.3c6.8-1.4,10.1-5.1,9.9-11.1S81.9,34.9,73,27.4c-4.1-5.4-1.9-7.9,6.6-7.8h11.2v2.3H90.9z"/>
	<path class="st0" d="M90.9,5.3h50.8v2.3H90.9V5.3z M110.5,17.2H90.9V9.9h48.8v7.3h-19.8v38.6h-9.4
		C110.5,55.8,110.5,17.2,110.5,17.2z M108.5,58.7H122V19.6h19.7v2.3h-17.4V61h-18.1V21.9H90.9v-2.3h17.7v39.1H108.5z"/>
	<path class="st0" d="M196.8,44.4h1.5v2.4H195L182.4,7.6h-24.3l-13.7,39.1h-5.7v-2.3h3.8l13.7-39.1h28.2L196.8,44.4z M142,56.4V49
		h4.9l12.8-38.8H180L193.1,49h4.2v7.3h-12.4l-4.3-10.2h-22.7l-3.5,10.2H142V56.4z M138.7,58.7h17.6l3.5-10h19.6l3.5,10h14.3V61
		h-15.8l-3.5-10h-16.5l-3.6,10h-19.1V58.7z M170.3,15.4l-10.9,25.9h21.2L170.3,15.4z M170,20.2l7.2,18.9h-14.9L170,20.2z
		 M165.2,37.4h9.2L170.1,25L165.2,37.4z"/>
	<path class="st0" d="M194.5,7.6V5.3h39.3c4.5,0.4,8.1,1.5,10.8,3.3s4.5,3.5,5.5,5.2s1.7,3.7,2.1,6.1c0.4,2.4,0.1,5.1-0.8,7.9
		c-1,2.9-2.6,5.2-4.9,7c-2.3,1.8-5.6,3.2-10,4.2l4.2,5.3H257v2.3h-17.7l-5.1-7.4v-0.5c5.3-2.1,8.9-4,10.9-5.6
		c1.9-1.6,3.3-3.6,4.1-5.9s1.1-4.6,0.8-6.7s-0.8-3.9-1.7-5.3c-0.8-1.4-2.4-2.9-4.9-4.6c-2.4-1.6-5.6-2.6-9.6-3
		C233.8,7.6,194.5,7.6,194.5,7.6z M196.5,56.4V49h5.7V17.2h-4.7V9.9h36.3c3.5,0.3,6.4,1.2,8.5,2.6s3.5,2.8,4.2,3.9
		c0.7,1.2,1.1,2.7,1.4,4.5c0.2,1.8,0,3.7-0.6,5.6s-1.7,3.6-3.2,4.9c-1.5,1.3-5.5,3.7-12.1,7v1l6.8,9.4L255,49v7.3h-17.1l-17-18.5
		h-7.8v18.5h-16.6V56.4z M199.8,19.6v27.2h-2.3V19.6H199.8z M196.5,58.7h18.8V40.3h3.7l17.6,18.4H257V61h-21.7l-17.7-18.4V61h-21.1
		V58.7z M214.6,16.1V33h19.1c1,0,2.1-0.5,3.3-1.4s1.9-3.2,2-6.8c-0.2-3.5-1-5.8-2.2-6.9s-2.3-1.7-3.1-1.7L214.6,16.1L214.6,16.1z
		 M216.6,18.2h15.6c0.7,0,1.5,0.4,2.5,1.2c1,0.8,1.6,2.5,1.8,5c-0.1,2.6-0.6,4.3-1.6,5s-1.9,1-2.7,1h-15.6V18.2z M219,20.5v7.9h12
		c0.6,0,1.3-0.2,2.1-0.6s1.2-1.5,1.2-3.3c-0.1-1.6-0.6-2.7-1.4-3.2c-0.8-0.5-1.4-0.8-1.9-0.8H219z"/>
</g>
<g>
	<path class="st0" d="M35.7,66.8v-2.3h15.8l7.6,24.1l6.6-24.1h16.7l7.8,24.1l5.2-24.1h16.5v2.3H97.2l-5.7,24.1h-2.6l-8.1-24.1H67.7
		l-6.9,24.1h-3.3l-7.6-24.1H35.7z M37.7,69.1h10.4L56,92.8h6.1L69.6,69h9.7l8.2,23.8h5.1l6-23.7h11.2v7.3h-4.1l-9.6,39.5H84.8
		l-7.4-23.7h-6.1l-6.5,23.3H54.1L41.8,76.4h-4.1V69.1z M107.6,78.7h4.3V81h-2.5l-9.9,39.1H81.4l-7.1-23.6l-5.9,23.6H50.3L38.2,81
		h-2.5v-2.3H40l12.3,39.1h14.4l6.1-23.6H76l7.2,23.6h14.7L107.6,78.7z"/>
	<path class="st0" d="M167,103.6h1.5v2.3h-3.3l-12.6-39.1h-24.3l-13.7,39.1h-5v-2.3h3.1l13.7-39.1h28.2L167,103.6z M112.2,115.5
		v-7.3h4.9L130,69.4h20.2l13.1,38.8h4.2v7.3h-12.4l-4.3-10.2h-22.7l-3.5,10.2H112.2z M109.6,117.8h16.9l3.5-10h19.6l3.6,10h16.3v2.3
		h-17.8l-3.6-10h-16.5l-3.6,10h-18.4V117.8z M140.5,74.6l-10.9,25.9h21.2L140.5,74.6z M140.2,79.4l7.2,18.9h-14.9L140.2,79.4z
		 M135.4,96.5h9.2l-4.2-12.4L135.4,96.5z"/>
	<path class="st0" d="M164.6,66.8v-2.3h39.3c4.5,0.4,8.1,1.5,10.8,3.3s4.5,3.5,5.5,5.2s1.7,3.7,2.1,6.1c0.4,2.4,0.1,5.1-0.8,7.9
		c-1,2.9-2.6,5.2-4.9,7c-2.3,1.8-5.6,3.2-10,4.2l4.2,5.3h14.4v2.3h-15.7l-5.1-7.4v-0.5c5.3-2.1,8.9-4,10.9-5.6
		c1.9-1.6,3.3-3.6,4.1-5.9s1.1-4.6,0.8-6.7s-0.8-3.9-1.7-5.3c-0.8-1.4-2.4-2.9-4.9-4.6c-2.4-1.6-5.6-2.6-9.6-3H164.6z M166.6,115.5
		v-7.3h5.7V76.4h-4.7v-7.3h36.3c3.5,0.3,6.4,1.2,8.5,2.6s3.5,2.8,4.2,3.9c0.7,1.2,1.1,2.7,1.4,4.5c0.2,1.8,0,3.7-0.6,5.6
		s-1.7,3.6-3.2,4.9s-5.5,3.7-12.1,7v1l6.8,9.4l16.3,0.1v7.3H208L191,97h-7.8v18.5H166.6z M169.9,78.7v27.2h-2.3V78.7H169.9z
		 M168.6,117.8h16.8V99.4h3.7l17.6,18.4H225v2.3h-19.7l-17.7-18.4v18.4h-19.1L168.6,117.8L168.6,117.8z M184.7,75.2v16.9h19.1
		c1,0,2.1-0.5,3.3-1.4s1.9-3.2,2-6.8c-0.2-3.5-1-5.8-2.2-6.9s-2.3-1.7-3.1-1.7L184.7,75.2L184.7,75.2z M186.8,77.4h15.6
		c0.7,0,1.5,0.4,2.5,1.2c1,0.8,1.6,2.5,1.8,5c-0.1,2.6-0.6,4.3-1.6,5s-1.9,1-2.7,1h-15.6V77.4z M189.2,79.6v7.9h11.9
		c0.6,0,1.3-0.2,2.1-0.6s1.2-1.5,1.2-3.3c-0.1-1.6-0.6-2.7-1.4-3.2s-1.4-0.8-1.9-0.8H189.2z"/>
	<path class="st0" d="M268.7,64.4v2.3h-30.1c-5.4,0.1-8.7,3-10.1,8.6c-1.4,5.6,2.3,12.5,11,20.6c6.5,6.4,4.8,9.7-4.9,10h-10.4v-2.3
		h10.4c7.3,0.2,8.2-1.8,2.8-6.1c-9-8.2-12.8-15.8-11.4-22.7c1.3-6.9,5.6-10.3,12.7-10.3L268.7,64.4L268.7,64.4z M224.2,108.2h10.5
		c12.1-0.8,14.4-5.3,7.1-13.7c-8.2-8.2-11.8-14.5-10.7-18.9c1-4.4,3.6-6.5,7.6-6.5h28.1v7.3h-11.2c-10.8-0.3-14.1,3-10,10
		c9.4,7.8,14.3,14.3,14.8,19.4s-2.1,8.3-7.6,9.7h-28.4v-7.3H224.2z M268.7,81h-13.2c-6.6-0.2-7.6,1.6-2.9,5.5
		c8.3,7.3,12.4,14.4,12.3,21.3s-4.2,11-12.3,12.3h-28.3v-2.3h28.3c6.8-1.4,10.1-5.1,9.9-11.1c-0.2-6-4.7-12.7-13.6-20.2
		c-4.1-5.3-1.9-7.9,6.6-7.8h13.2L268.7,81L268.7,81z"/>
</g>
<rect x="107.5" y="103.6" class="st0" width="2.3" height="16.6"/>
<rect x="137.4" y="44.4" class="st0" width="2.3" height="16.6"/>
<rect x="268.5" y="64.4" class="st0" width="2.3" height="16.6"/>
<rect x="256.8" y="44.4" class="st0" width="2.3" height="16.6"/>
<rect x="45.1" y="44.4" class="st0" width="2.3" height="16.6"/>
<rect x="111.9" y="64.4" class="st0" width="2.3" height="16.6"/>
<rect x="33.5" y="64.4" class="st0" width="2.3" height="16.6"/>
<rect x="141.7" y="5.3" class="st0" width="2.3" height="16.6"/>
<rect x="193.3" y="5.3" class="st0" width="2.3" height="15.6"/>
<rect x="193.3" y="19.6" class="st0" width="5.8" height="2.3"/>
<rect x="163.3" y="64.4" class="st0" width="2.3" height="15.6"/>
<rect x="163.3" y="78.6" class="st0" width="5.8" height="2.3"/>
</svg>
